<svg width="32" height="32" viewBox="0 0 32 32" fill="none" xmlns="http://www.w3.org/2000/svg">
<circle cx="16" cy="16" r="16" fill="#D9D9D9"/>
<path d="M19.5291 18.2857C19.6023 17.6823 19.6571 17.0789 19.6571 16.4571C19.6571 15.8354 19.6023 15.232 19.5291 14.6286H22.6194C22.7657 15.2137 22.8571 15.8263 22.8571 16.4571C22.8571 17.088 22.7657 17.7006 22.6194 18.2857M17.9109 23.3691C18.4594 22.3543 18.88 21.2571 19.1726 20.1143H21.8697C20.9839 21.6396 19.5786 22.795 17.9109 23.3691ZM17.6823 18.2857H13.4034C13.312 17.6823 13.2571 17.0789 13.2571 16.4571C13.2571 15.8354 13.312 15.2229 13.4034 14.6286H17.6823C17.7646 15.2229 17.8286 15.8354 17.8286 16.4571C17.8286 17.0789 17.7646 17.6823 17.6823 18.2857ZM15.5429 23.7349C14.784 22.6377 14.1714 21.4217 13.7966 20.1143H17.2891C16.9143 21.4217 16.3017 22.6377 15.5429 23.7349ZM11.8857 12.8H9.21599C10.0927 11.2706 11.4969 10.1134 13.1657 9.54515C12.6171 10.56 12.2057 11.6571 11.8857 12.8ZM9.21599 20.1143H11.8857C12.2057 21.2571 12.6171 22.3543 13.1657 23.3691C11.5004 22.7947 10.0981 21.6391 9.21599 20.1143ZM8.46628 18.2857C8.31999 17.7006 8.22857 17.088 8.22857 16.4571C8.22857 15.8263 8.31999 15.2137 8.46628 14.6286H11.5566C11.4834 15.232 11.4286 15.8354 11.4286 16.4571C11.4286 17.0789 11.4834 17.6823 11.5566 18.2857M15.5429 9.17029C16.3017 10.2674 16.9143 11.4926 17.2891 12.8H13.7966C14.1714 11.4926 14.784 10.2674 15.5429 9.17029ZM21.8697 12.8H19.1726C18.8864 11.6676 18.4627 10.5745 17.9109 9.54515C19.5931 10.1211 20.992 11.2823 21.8697 12.8ZM15.5429 7.31429C10.4869 7.31429 6.39999 11.4286 6.39999 16.4571C6.39999 18.882 7.36326 21.2075 9.07787 22.9221C9.92687 23.7711 10.9348 24.4446 12.044 24.904C13.1533 25.3635 14.3422 25.6 15.5429 25.6C17.9677 25.6 20.2932 24.6367 22.0078 22.9221C23.7224 21.2075 24.6857 18.882 24.6857 16.4571C24.6857 15.2565 24.4492 14.0676 23.9897 12.9583C23.5303 11.8491 22.8568 10.8412 22.0078 9.99217C21.1588 9.14318 20.1509 8.46972 19.0417 8.01025C17.9324 7.55078 16.7435 7.31429 15.5429 7.31429Z" fill="#315690"/>
</svg>
