<svg width="16" height="13" viewBox="0 0 16 13" fill="none" xmlns="http://www.w3.org/2000/svg">
<path d="M15.4689 0H0.531119C0.390273 0.000165053 0.255245 0.0561959 0.155671 0.155795C0.0560975 0.255395 0.000112101 0.390426 2.1188e-06 0.531253V1.59999C2.1188e-06 1.64923 0.0534047 1.70574 0.0970411 1.7286L7.94868 6.21277C7.96879 6.22426 7.99159 6.23021 8.01475 6.23001C8.03843 6.23008 8.06169 6.22376 8.08208 6.21173L15.6964 1.73296C15.7392 1.70907 15.8527 1.64591 15.8953 1.61682C15.9468 1.58171 16 1.54992 16 1.48697V0.531045C15.9998 0.390254 15.9438 0.255276 15.8443 0.155722C15.7447 0.0561675 15.6097 0.000164958 15.4689 0ZM15.9337 3.21141C15.9133 3.19975 15.8901 3.19369 15.8666 3.19384C15.8431 3.19398 15.82 3.20033 15.7997 3.21224L11.4907 5.74717C11.4735 5.75717 11.4588 5.77091 11.4477 5.78737C11.4366 5.80383 11.4293 5.82258 11.4264 5.84224C11.4235 5.8619 11.4251 5.88196 11.431 5.90093C11.4369 5.9199 11.447 5.93729 11.4606 5.95181L15.7702 10.5968C15.7825 10.6102 15.7975 10.6209 15.8142 10.6282C15.8309 10.6355 15.849 10.6392 15.8672 10.6392C15.9024 10.6391 15.9362 10.6251 15.961 10.6002C15.9859 10.5753 15.9999 10.5416 16 10.5064V3.32672C16.0001 3.30336 15.994 3.2804 15.9824 3.26015C15.9707 3.2399 15.9539 3.22309 15.9337 3.21141ZM10.2489 6.59838C10.2285 6.5761 10.201 6.56152 10.1711 6.55706C10.1412 6.55259 10.1106 6.55853 10.0846 6.57386L8.3574 7.59003C8.25621 7.6485 8.14155 7.67964 8.02468 7.6804C7.90781 7.68117 7.79276 7.65153 7.69081 7.5944L6.17081 6.72615C6.14627 6.71218 6.11792 6.70638 6.08986 6.70959C6.0618 6.7128 6.0355 6.72486 6.01475 6.74402L0.242703 12.0973C0.227571 12.1114 0.215953 12.1289 0.208775 12.1483C0.201596 12.1677 0.199056 12.1886 0.201357 12.2092C0.203658 12.2298 0.210736 12.2495 0.222027 12.2669C0.233318 12.2842 0.24851 12.2987 0.266392 12.3092C0.356158 12.362 0.442807 12.3871 0.530911 12.3871H15.3159C15.3418 12.3871 15.3671 12.3796 15.3888 12.3654C15.4104 12.3512 15.4273 12.3309 15.4375 12.3071C15.4479 12.2835 15.4511 12.2573 15.4467 12.2319C15.4424 12.2064 15.4306 12.1828 15.413 12.164L10.2489 6.59838ZM4.74473 6.11075C4.76002 6.09662 4.77177 6.07909 4.77903 6.05958C4.78629 6.04007 4.78886 6.01913 4.78654 5.99844C4.78421 5.97775 4.77705 5.9579 4.76564 5.94049C4.75423 5.92308 4.73888 5.9086 4.72083 5.89821L0.198028 3.31529C0.177844 3.30383 0.155004 3.29787 0.131794 3.29801C0.108583 3.29815 0.0858152 3.30437 0.0657669 3.31607C0.0457186 3.32776 0.0290926 3.34452 0.0175515 3.36465C0.00601046 3.38479 -4.10375e-05 3.4076 2.1188e-06 3.43081V10.2081C-0.000144327 10.234 0.00730365 10.2593 0.0214241 10.281C0.0355445 10.3027 0.0557175 10.3198 0.0794463 10.3301C0.103175 10.3405 0.129418 10.3436 0.154927 10.3392C0.180435 10.3348 0.20409 10.323 0.222963 10.3053L4.74473 6.11075Z" fill="#315690"/>
</svg>
