<svg width="16" height="13" viewBox="0 0 16 13" fill="none" xmlns="http://www.w3.org/2000/svg">
<path d="M16 1.52964C15.4111 1.79732 14.7763 1.97323 14.1185 2.05736C14.7916 1.65201 15.3117 1.00956 15.5564 0.237094C14.9216 0.619503 14.218 0.88719 13.4761 1.04015C12.8719 0.382409 12.0229 0 11.0593 0C9.26195 0 7.7935 1.46845 7.7935 3.28107C7.7935 3.54111 7.82409 3.7935 7.87763 4.03059C5.15488 3.89293 2.7304 2.58509 1.11663 0.604207C0.833652 1.08604 0.67304 1.65201 0.67304 2.24857C0.67304 3.38815 1.24665 4.39771 2.13384 4.97132C1.59082 4.97132 1.08604 4.81836 0.642448 4.58891V4.61186C0.642448 6.20268 1.77438 7.53346 3.27342 7.83174C2.79214 7.96345 2.28688 7.98177 1.79732 7.88528C2.00505 8.53727 2.41188 9.10777 2.96062 9.51658C3.50937 9.9254 4.17243 10.152 4.8566 10.1644C3.69685 11.0826 2.25927 11.5788 0.780115 11.5717C0.520077 11.5717 0.260038 11.5564 0 11.5258C1.45316 12.4589 3.18164 13.0019 5.03251 13.0019C11.0593 13.0019 14.3709 8 14.3709 3.66348C14.3709 3.51816 14.3709 3.3805 14.3633 3.23518C15.0057 2.77629 15.5564 2.19503 16 1.52964Z" fill="#315690"/>
</svg>
