<svg width="32" height="32" viewBox="0 0 32 32" fill="none" xmlns="http://www.w3.org/2000/svg">
<path d="M16 0L31.2169 11.0557L25.4046 28.9443H6.59544L0.783095 11.0557L16 0Z" fill="#D9D9D9"/>
<path fill-rule="evenodd" clip-rule="evenodd" d="M9.1712 9.1712C8 10.344 8 12.2288 8 16C8 19.7712 8 21.6568 9.1712 22.828C10.344 24 12.2288 24 16 24C19.7712 24 21.6568 24 22.828 22.828C24 21.6576 24 19.7712 24 16C24 12.2288 24 10.3432 22.828 9.1712C21.6576 8 19.7712 8 16 8C12.2288 8 10.3432 8 9.1712 9.1712ZM11.5392 14.016C11.6411 13.8938 11.7873 13.8171 11.9457 13.8027C12.1041 13.7883 12.2618 13.8374 12.384 13.9392L12.6056 14.1232C13.0896 14.5264 13.5016 14.8696 13.7864 15.1856C14.0896 15.5216 14.3256 15.9064 14.3256 16.4C14.3256 16.8936 14.0896 17.2792 13.7864 17.6144C13.5016 17.9304 13.0896 18.2736 12.6056 18.6768L12.384 18.8608C12.3238 18.9135 12.2536 18.9536 12.1777 18.9788C12.1018 19.0039 12.0215 19.0136 11.9418 19.0074C11.862 19.0011 11.7843 18.9789 11.7133 18.9421C11.6422 18.9054 11.5792 18.8548 11.528 18.7933C11.4768 18.7319 11.4384 18.6608 11.415 18.5843C11.3917 18.5077 11.3839 18.4273 11.3921 18.3477C11.4003 18.2681 11.4243 18.191 11.4628 18.1208C11.5012 18.0507 11.5533 17.9889 11.616 17.9392L11.8032 17.7832C12.3304 17.3432 12.6752 17.0552 12.896 16.8104C13.1056 16.5784 13.1256 16.4688 13.1256 16.4C13.1256 16.3312 13.1056 16.2224 12.896 15.9896C12.6744 15.7448 12.3304 15.456 11.8032 15.0168L11.616 14.8608C11.4938 14.7589 11.4171 14.6127 11.4027 14.4543C11.3883 14.2959 11.4374 14.1382 11.5392 14.016ZM20.6 18.4C20.6 18.5591 20.5368 18.7117 20.4243 18.8243C20.3117 18.9368 20.1591 19 20 19H16C15.8409 19 15.6883 18.9368 15.5757 18.8243C15.4632 18.7117 15.4 18.5591 15.4 18.4C15.4 18.2409 15.4632 18.0883 15.5757 17.9757C15.6883 17.8632 15.8409 17.8 16 17.8H20C20.1591 17.8 20.3117 17.8632 20.4243 17.9757C20.5368 18.0883 20.6 18.2409 20.6 18.4Z" fill="black"/>
</svg>
