<svg width="32" height="32" viewBox="0 0 32 32" fill="none" xmlns="http://www.w3.org/2000/svg">
<path d="M16 0L31.2169 11.0557L25.4046 28.9443H6.59544L0.783095 11.0557L16 0Z" fill="#D9D9D9"/>
<path d="M16 8.538L23.89 13.6667L22.6667 14.462V18.6667H21.3333V15.3287L20.6667 15.762V19.6667C20.6667 20.6467 19.9907 21.41 19.1647 21.8927C18.3213 22.384 17.2013 22.666 16 22.666C14.7987 22.666 13.678 22.384 12.8353 21.8927C12.0087 21.41 11.3333 20.646 11.3333 19.666V15.762L8.11 13.6667L16 8.538ZM12.6667 16.6287V19.6667C12.6667 19.9753 12.8867 20.378 13.5073 20.74C14.1127 21.0933 14.992 21.3333 16 21.3333C17.008 21.3333 17.8873 21.0933 18.4927 20.74C19.114 20.378 19.3327 19.9753 19.3327 19.6667V16.6287L15.9993 18.7953L12.6667 16.6287ZM21.4433 13.6667L16 10.1287L10.5567 13.6667L16 17.2047L21.4433 13.6667Z" fill="#FF3D00"/>
</svg>
