<svg width="32" height="32" viewBox="0 0 32 32" fill="none" xmlns="http://www.w3.org/2000/svg">
<path d="M2.64359 8.28868L16 0.57735L29.3564 8.28868V23.7113L16 31.4227L2.64359 23.7113V8.28868Z" stroke="#DA8846"/>
<g clip-path="url(#clip0_4_53)">
<path fill-rule="evenodd" clip-rule="evenodd" d="M16.8913 8.83334H18.442C19.2387 8.83334 19.8727 8.83334 20.3807 8.88134C20.9013 8.93134 21.342 9.03467 21.734 9.27534C22.1379 9.52293 22.4774 9.86264 22.7247 10.2667C22.9647 10.6587 23.0687 11.0993 23.118 11.62C23.1667 12.128 23.1667 12.762 23.1667 13.5587V14.102C23.1667 14.6687 23.1667 15.12 23.1413 15.486C23.116 15.86 23.0627 16.1813 22.938 16.482C22.7873 16.846 22.5664 17.1768 22.2879 17.4555C22.0093 17.7341 21.6786 17.9552 21.3147 18.106C21.0613 18.2107 20.7927 18.2653 20.4873 18.2953C20.4833 18.3887 20.4793 18.4767 20.474 18.5607C20.4467 18.958 20.39 19.2967 20.2587 19.6127C19.9373 20.3883 19.321 21.0046 18.5453 21.326C18.1473 21.4913 17.7087 21.5393 17.1567 21.5573C16.8593 21.5667 16.67 21.5733 16.5253 21.5907C16.3893 21.6073 16.338 21.6293 16.31 21.646C16.2793 21.664 16.2367 21.6973 16.1633 21.7993C16.0833 21.9093 15.9927 22.0613 15.85 22.3033L15.6767 22.5953C15.2253 23.358 14.108 23.358 13.6567 22.5953L13.4833 22.3033C13.3407 22.0613 13.25 21.9093 13.17 21.7993C13.0967 21.6973 13.054 21.664 13.0233 21.646C12.9953 21.6293 12.944 21.6073 12.808 21.5907C12.5981 21.5712 12.3875 21.5601 12.1767 21.5573C11.6247 21.5393 11.186 21.4907 10.788 21.326C10.0123 21.0046 9.39607 20.3883 9.07468 19.6127C8.94334 19.2967 8.88668 18.958 8.86001 18.5607C8.83334 18.1713 8.83334 17.6913 8.83334 17.0853V16.508C8.83334 15.6573 8.83334 14.9827 8.88468 14.4427C8.93734 13.8893 9.04734 13.4253 9.30001 13.0127C9.56102 12.5864 9.91923 12.2279 10.3453 11.9667C10.758 11.7133 11.222 11.604 11.7753 11.5513C11.9153 11.538 12.0653 11.528 12.2253 11.5207C12.2787 11.0407 12.3853 10.6313 12.6087 10.266C12.8563 9.86214 13.196 9.52266 13.6 9.27534C13.992 9.03534 14.4327 8.93134 14.9533 8.882C15.4613 8.83334 16.0953 8.83334 16.8913 8.83334ZM13.2347 11.5007L13.84 11.5H15.492C16.3427 11.5 17.0173 11.5 17.5573 11.5513C18.1107 11.604 18.5747 11.714 18.9873 11.9667C19.4134 12.2278 19.7716 12.586 20.0327 13.012C20.286 13.4247 20.3953 13.8887 20.448 14.442C20.4993 14.982 20.4993 15.6567 20.4993 16.5073V17.2867C20.6474 17.271 20.7927 17.2356 20.9313 17.1813C21.1741 17.0808 21.3946 16.9335 21.5804 16.7477C21.7662 16.5619 21.9135 16.3414 22.014 16.0987C22.0793 15.94 22.1207 15.7407 22.1433 15.4173C22.166 15.0893 22.166 14.6727 22.166 14.0833V13.5833C22.166 12.7553 22.166 12.17 22.122 11.714C22.0793 11.2667 21.9993 10.9973 21.8713 10.7887C21.7065 10.5197 21.4803 10.2935 21.2113 10.1287C21.002 10 20.7327 9.92 20.2847 9.87734C19.83 9.834 19.244 9.83334 18.416 9.83334H16.916C16.088 9.83334 15.502 9.83334 15.0467 9.87734C14.5993 9.92 14.33 10 14.1207 10.128C13.8517 10.2929 13.6255 10.519 13.4607 10.788C13.354 10.9633 13.2807 11.1773 13.2347 11.5007ZM11.8693 12.548C11.3893 12.5933 11.096 12.68 10.8673 12.82C10.5758 12.9987 10.3307 13.2438 10.152 13.5353C10.012 13.764 9.92534 14.0573 9.87934 14.5373C9.83268 15.024 9.83268 15.6513 9.83268 16.534V17.0673C9.83268 17.6953 9.83268 18.1413 9.85668 18.4927C9.88068 18.8393 9.92534 19.056 9.99734 19.23C10.1063 19.493 10.266 19.7319 10.4673 19.9331C10.6687 20.1343 10.9077 20.2939 11.1707 20.4027C11.3927 20.4947 11.68 20.5407 12.208 20.5573L12.2287 20.558C12.4993 20.5667 12.734 20.5747 12.9287 20.598C13.1353 20.6233 13.3387 20.6713 13.5313 20.7847C13.7213 20.898 13.8587 21.0467 13.978 21.2113C14.0893 21.3647 14.2033 21.5573 14.3333 21.776L14.5167 22.086C14.532 22.1117 14.5539 22.1328 14.5802 22.1471C14.6065 22.1615 14.6361 22.1684 14.666 22.1673C14.6959 22.1684 14.7256 22.1615 14.7518 22.1471C14.7781 22.1328 14.8 22.1117 14.8153 22.086L14.9987 21.776C15.128 21.5573 15.2427 21.364 15.3533 21.2113C15.4707 21.0394 15.6229 20.8941 15.8 20.7847C15.9933 20.6713 16.1967 20.6233 16.404 20.598C16.6365 20.5749 16.8698 20.5616 17.1033 20.558H17.1233C17.652 20.5407 17.9387 20.4947 18.162 20.4027C18.425 20.2937 18.6639 20.134 18.8651 19.9327C19.0663 19.7314 19.2259 19.4924 19.3347 19.2293C19.4067 19.056 19.4513 18.8387 19.4747 18.4927C19.4993 18.1413 19.4993 17.6953 19.4993 17.0673V16.534C19.4993 15.6513 19.4993 15.0247 19.4527 14.5373C19.4067 14.0573 19.32 13.764 19.18 13.5353C19.0014 13.2438 18.7562 12.9987 18.4647 12.82C18.236 12.68 17.9427 12.5933 17.4627 12.5473C16.976 12.5007 16.3487 12.5007 15.466 12.5007H13.8667C12.984 12.5007 12.3573 12.5007 11.87 12.5473" fill="#DA8846"/>
<path d="M13 16.6667C13 16.8435 12.9298 17.013 12.8047 17.1381C12.6797 17.2631 12.5101 17.3333 12.3333 17.3333C12.1565 17.3333 11.9869 17.2631 11.8619 17.1381C11.7369 17.013 11.6667 16.8435 11.6667 16.6667C11.6667 16.4899 11.7369 16.3203 11.8619 16.1953C11.9869 16.0702 12.1565 16 12.3333 16C12.5101 16 12.6797 16.0702 12.8047 16.1953C12.9298 16.3203 13 16.4899 13 16.6667ZM15.3333 16.6667C15.3333 16.8435 15.2631 17.013 15.1381 17.1381C15.013 17.2631 14.8435 17.3333 14.6667 17.3333C14.4898 17.3333 14.3203 17.2631 14.1953 17.1381C14.0702 17.013 14 16.8435 14 16.6667C14 16.4899 14.0702 16.3203 14.1953 16.1953C14.3203 16.0702 14.4898 16 14.6667 16C14.8435 16 15.013 16.0702 15.1381 16.1953C15.2631 16.3203 15.3333 16.4899 15.3333 16.6667ZM17.6667 16.6667C17.6667 16.8435 17.5964 17.013 17.4714 17.1381C17.3464 17.2631 17.1768 17.3333 17 17.3333C16.8232 17.3333 16.6536 17.2631 16.5286 17.1381C16.4036 17.013 16.3333 16.8435 16.3333 16.6667C16.3333 16.4899 16.4036 16.3203 16.5286 16.1953C16.6536 16.0702 16.8232 16 17 16C17.1768 16 17.3464 16.0702 17.4714 16.1953C17.5964 16.3203 17.6667 16.4899 17.6667 16.6667Z" fill="#DA8846"/>
</g>
<defs>
<clipPath id="clip0_4_53">
<rect width="16" height="16" fill="white" transform="translate(8 8)"/>
</clipPath>
</defs>
</svg>
