<svg width="32" height="32" viewBox="0 0 32 32" fill="none" xmlns="http://www.w3.org/2000/svg">
<rect width="32" height="32" fill="#D9D9D9"/>
<path d="M6.76999 14.423L11.038 6.98099L15.308 14.423H6.76999ZM11.057 24.52C10.0723 24.52 9.23966 24.18 8.55899 23.5C7.87832 22.8173 7.53799 21.984 7.53799 21C7.53799 20.028 7.87866 19.1987 8.55999 18.512C9.23999 17.8247 10.0727 17.481 11.058 17.481C12.0293 17.481 12.8587 17.8243 13.546 18.511C14.2327 19.1983 14.576 20.028 14.576 21C14.576 21.9847 14.2327 22.8173 13.546 23.498C12.8593 24.1787 12.03 24.519 11.058 24.519M17.519 24.519V17.481H24.558V24.519H17.519ZM21.039 14.423C20.4217 13.931 19.8563 13.474 19.343 13.052C18.8297 12.63 18.3877 12.2203 18.017 11.823C17.647 11.4257 17.3593 11.0307 17.154 10.638C16.9487 10.246 16.846 9.83532 16.846 9.40599C16.846 8.80999 17.0413 8.31765 17.432 7.92899C17.822 7.54032 18.319 7.34599 18.923 7.34599C19.3217 7.34599 19.6943 7.44365 20.041 7.63899C20.3877 7.83499 20.72 8.12899 21.038 8.52099C21.356 8.14099 21.695 7.85032 22.055 7.64899C22.415 7.44699 22.7877 7.34599 23.173 7.34599C23.7643 7.34599 24.255 7.54999 24.645 7.95799C25.0357 8.36532 25.231 8.86699 25.231 9.46299C25.231 9.87965 25.1283 10.281 24.923 10.667C24.7177 11.0537 24.43 11.4423 24.06 11.833C23.6893 12.2237 23.2473 12.63 22.734 13.052C22.2207 13.474 21.6563 13.931 21.039 14.423Z" fill="#FF8A00"/>
</svg>
