<svg width="32" height="32" viewBox="0 0 32 32" fill="none" xmlns="http://www.w3.org/2000/svg">
<path d="M16 0.781542L21.8227 7.77666L21.9038 7.87409L22.0215 7.92111L30.4736 11.2972L25.6202 18.9966L25.5526 19.1038L25.5442 19.2303L24.9452 28.312L16.1229 26.0753L16 26.0442L15.8771 26.0753L7.05482 28.312L6.45576 19.2303L6.44741 19.1038L6.37982 18.9966L1.52639 11.2972L9.97846 7.92111L10.0962 7.87409L10.1773 7.77666L16 0.781542Z" stroke="#0061BB"/>
<path d="M17.489 11.521C17.4735 11.5296 17.4587 11.5397 17.445 11.551C17.3879 11.6021 17.3328 11.6554 17.28 11.711C17.1385 11.8475 16.949 11.9231 16.7524 11.9213C16.5557 11.9195 16.3676 11.8405 16.2286 11.7014C16.0897 11.5622 16.0109 11.3741 16.0093 11.1774C16.0076 10.9808 16.0833 10.7914 16.22 10.65L16.24 10.63C16.401 10.468 16.563 10.306 16.845 10.165C16.8636 10.1555 16.8827 10.1469 16.902 10.139C17.595 9.862 18.292 10.007 18.821 10.396C19.059 10.56 19.207 10.756 19.311 10.917C19.35 10.9807 19.388 11.0451 19.425 11.11L19.437 11.13C19.462 11.175 19.483 11.21 19.503 11.243L20.531 10.216C20.6732 10.0835 20.8612 10.0114 21.0555 10.0148C21.2498 10.0182 21.4352 10.097 21.5726 10.2344C21.71 10.3718 21.7888 10.5572 21.7922 10.7515C21.7956 10.9458 21.7235 11.1338 21.591 11.276L20.237 12.631C20.269 12.685 20.299 12.734 20.329 12.778C20.394 12.877 20.468 12.999 20.529 13.1L20.594 13.208C20.6346 13.2745 20.6779 13.3392 20.724 13.402L20.736 13.416C20.7634 13.4451 20.7959 13.4689 20.832 13.486C20.8524 13.4952 20.8744 13.5001 20.8968 13.5004C20.9192 13.5008 20.9413 13.4965 20.962 13.488C20.9871 13.4714 21.0131 13.4564 21.04 13.443C21.0631 13.4319 21.0847 13.4178 21.104 13.401C21.136 13.375 21.172 13.34 21.264 13.249C21.4062 13.1165 21.5942 13.0444 21.7885 13.0478C21.9828 13.0512 22.1682 13.13 22.3056 13.2674C22.443 13.4048 22.5218 13.5902 22.5252 13.7845C22.5286 13.9788 22.4565 14.1668 22.324 14.309L22.304 14.329C22.154 14.479 22.003 14.631 21.749 14.765C21.422 14.9591 21.0387 15.0364 20.6621 14.9841C20.2854 14.9317 19.9377 14.7529 19.676 14.477C19.5382 14.3305 19.4174 14.1688 19.316 13.995L19.216 13.828L19.149 13.718L18.087 14.781C17.9455 14.9175 17.756 14.9931 17.5594 14.9913C17.3627 14.9895 17.1746 14.9105 17.0356 14.7714C16.8967 14.6322 16.8179 14.4441 16.8163 14.2474C16.8146 14.0508 16.8903 13.8614 17.027 13.72L18.4 12.347C18.3492 12.2563 18.3002 12.1646 18.253 12.072C18.2124 12.0083 18.1734 11.9436 18.136 11.878L18.123 11.855C18.09 11.798 18.068 11.759 18.045 11.723C17.999 11.651 17.98 11.638 17.971 11.632C17.9595 11.6243 17.9481 11.6163 17.937 11.608C17.787 11.496 17.64 11.47 17.489 11.521ZM14.284 12.943C14.773 12.947 15.202 13.187 15.496 13.497C15.79 13.807 16.002 14.243 16.011 14.735C16.0387 15.0635 15.994 15.394 15.8799 15.7033C15.7659 16.0126 15.5853 16.2931 15.351 16.525C14.924 16.958 14.354 17.228 13.804 17.401C12.911 17.683 11.901 17.763 11.15 17.759C11.048 18.162 11.038 18.459 11.072 18.674C11.112 18.92 11.214 19.089 11.368 19.225C11.3825 19.2378 11.3965 19.2511 11.41 19.265C11.549 19.408 11.72 19.463 12.131 19.549C13.069 19.657 14.033 19.109 14.651 18.26C14.7091 18.1803 14.7822 18.1129 14.8663 18.0615C14.9504 18.0102 15.0438 17.9759 15.1412 17.9606C15.2386 17.9453 15.338 17.9494 15.4338 17.9725C15.5296 17.9957 15.6199 18.0375 15.6995 18.0955C15.7792 18.1535 15.8466 18.2267 15.898 18.3108C15.9493 18.3949 15.9836 18.4883 15.9989 18.5857C16.0142 18.683 16.0101 18.7825 15.987 18.8783C15.9638 18.974 15.9221 19.0643 15.864 19.144C15.027 20.292 13.566 21.246 11.914 21.034C11.8952 21.0314 11.8765 21.028 11.858 21.024L11.812 21.014C11.435 20.937 10.839 20.816 10.355 20.332C9.94233 19.962 9.67206 19.4593 9.59101 18.911C9.50001 18.34 9.58201 17.705 9.80501 17.013C9.8127 16.979 9.82272 16.9456 9.83501 16.913L9.92901 16.662C10.1735 15.9704 10.5192 15.319 10.955 14.729C11.609 13.857 12.698 12.894 14.284 12.943ZM11.76 16.242C12.2994 16.2147 12.8338 16.1241 13.352 15.972C13.783 15.835 14.096 15.662 14.285 15.47C14.3708 15.388 14.4361 15.287 14.4757 15.1751C14.5153 15.0633 14.5281 14.9437 14.513 14.826C14.5115 14.806 14.5109 14.786 14.511 14.766C14.5074 14.6764 14.4702 14.5915 14.407 14.528C14.3793 14.4984 14.3464 14.474 14.31 14.456C14.2976 14.4493 14.284 14.4449 14.27 14.443C14.2617 14.4431 14.2533 14.4431 14.245 14.443C13.359 14.413 12.676 14.933 12.155 15.629C12.0094 15.8242 11.8781 16.029 11.76 16.242Z" fill="#0061BB"/>
</svg>
