<svg width="32" height="32" viewBox="0 0 32 32" fill="none" xmlns="http://www.w3.org/2000/svg">
<circle cx="16" cy="16" r="15.5" stroke="#404DC7"/>
<path d="M21.0245 14.182C20.1105 14.182 19.6025 14.8595 19.496 15.594H22.5695C22.486 14.8935 21.991 14.1845 21.025 14.1845L21.0245 14.182ZM19.519 16.597C19.6755 17.3675 20.3135 17.909 21.207 17.909C21.6885 17.909 22.3865 17.7295 22.795 17.2995L23.579 18.201C22.871 18.9405 21.811 19.1515 21.087 19.1515C19.3265 19.1515 17.9545 17.88 17.9545 16.078C17.9545 14.3905 19.217 13 21.001 13C22.725 13 24.001 14.32 24.001 16.068V16.578H19.519V16.597ZM15.1935 19.149V15.3545C15.1935 14.7065 14.904 14.331 14.3 14.331C13.7585 14.331 13.3995 14.7215 13.1565 15.003V19.1615H11.589V15.362C11.589 14.7105 11.313 14.3415 10.711 14.3415C10.1695 14.3415 9.7945 14.732 9.5655 15.0135V19.172H8V13.0885H9.568V13.854C9.8335 13.5465 10.4345 13.0155 11.3725 13.0155C12.206 13.0155 12.7705 13.365 13.023 14.0755C13.3745 13.568 14.023 13.0155 14.963 13.0155C16.0985 13.0155 16.7575 13.6875 16.7575 14.9895V19.1515H15.1895L15.192 19.146L15.1935 19.149Z" fill="#404DC7"/>
</svg>
