<svg width="32" height="32" viewBox="0 0 32 32" fill="none" xmlns="http://www.w3.org/2000/svg">
<path d="M2.64359 8.28868L16 0.57735L29.3564 8.28868V23.7113L16 31.4227L2.64359 23.7113V8.28868Z" stroke="#00D1FF"/>
<path d="M15.0159 23.9619C13.589 23.7767 12.1201 23.1639 11.0502 22.3064C8.64143 20.382 7.54802 17.3418 8.17297 14.3227C8.44095 13.0191 9.13889 11.6474 10.0323 10.6592C10.6905 9.91758 11.4841 9.30876 12.3706 8.86555C13.5475 8.26833 14.6724 8 16.0003 8C16.9532 8 17.7192 8.12515 18.5966 8.42502C19.7493 8.82092 20.7965 9.4751 21.6585 10.3377C22.5204 11.2003 23.1742 12.2486 23.5702 13.4026C24.0392 14.7792 24.1247 16.2445 23.8252 17.6968C23.5857 18.8442 22.9683 20.1347 22.2083 21.0679C21.8958 21.4538 21.1769 22.1422 20.7994 22.421C19.6702 23.2608 18.3421 23.7918 16.9458 23.9619C16.5343 24.0139 15.4139 24.0114 15.0159 23.9619ZM17.1957 23.2921C19.1447 22.965 20.8841 21.8761 22.0313 20.2649C23.3827 18.3641 23.7447 15.814 22.9818 13.5903C22.8023 13.0687 22.3568 12.1981 22.0313 11.739C21.6694 11.2254 20.7734 10.3258 20.258 9.96338C19.758 9.60895 18.9066 9.17843 18.3256 8.9882C17.277 8.63935 16.1634 8.53088 15.0673 8.67082C13.9711 8.81076 12.9204 9.19552 11.9927 9.79668C11.1198 10.3708 10.3737 11.1179 9.80034 11.9918C9.20011 12.9203 8.81592 13.9719 8.67616 15.0689C8.5364 16.166 8.64465 17.2805 8.9929 18.33C9.18539 18.9113 9.61535 19.7668 9.96682 20.2674C10.3313 20.781 11.2272 21.6806 11.7402 22.0431C12.2011 22.3664 13.0681 22.812 13.589 22.9947C14.7486 23.3892 15.9874 23.4913 17.1957 23.2921ZM14.425 20.6063C14.0512 20.5499 13.6926 20.4186 13.3705 20.2203C13.0816 20.0351 10.8992 17.8945 10.7928 17.6938C10.6703 17.4645 10.8837 17.047 11.1887 16.9193L11.3317 16.8593L10.8917 16.4107C10.6498 16.1629 10.4203 15.8996 10.3838 15.8265C10.2978 15.6598 10.2953 15.3024 10.3758 15.1432C10.4098 15.0781 10.4903 14.979 10.5528 14.9239C10.6598 14.8353 10.6698 14.8038 10.6598 14.5795C10.6468 14.3812 10.6648 14.3032 10.7508 14.1545C10.8757 13.9407 11.1337 13.797 11.3862 13.7945C11.5267 13.7945 11.5632 13.7765 11.6232 13.6719C11.7797 13.3981 12.2271 13.2989 12.5686 13.4661L12.7536 13.5547L12.8446 13.4661C12.9696 13.3515 13.2196 13.2499 13.3835 13.2499C13.7115 13.2499 14.175 13.6278 14.175 13.8937C14.175 14.2115 13.886 14.2666 13.5995 14.0033C13.4095 13.8261 13.313 13.8076 13.2351 13.9327C13.1961 13.9928 13.2895 14.1049 13.8495 14.6706C14.4095 15.2338 14.5109 15.3539 14.5109 15.4606C14.5065 15.5423 14.4718 15.6194 14.4135 15.6768C14.3552 15.7343 14.2777 15.7678 14.196 15.7709C14.0945 15.7709 13.928 15.6248 13.1596 14.8583C12.3756 14.0759 12.2326 13.9507 12.1701 13.9903C12.0007 14.0974 12.0582 14.1755 12.9746 15.0956C13.472 15.5962 13.881 16.0393 13.881 16.0813C13.881 16.1674 13.803 16.3266 13.738 16.3682C13.6847 16.3916 13.6267 16.4024 13.5685 16.3997C13.4615 16.4022 13.2975 16.2535 12.4256 15.383C11.5507 14.5119 11.3942 14.3712 11.3317 14.4103C11.1597 14.5199 11.2172 14.5955 12.2146 15.5992C12.7591 16.1444 13.2146 16.632 13.2276 16.684C13.2561 16.7782 13.1936 16.9424 13.1106 16.9994C13.0555 17.0229 12.9959 17.0337 12.9361 17.031C12.8291 17.031 12.6941 16.9138 11.9727 16.1914C11.2772 15.4951 11.1157 15.3519 11.0272 15.3599C10.7773 15.3885 10.8657 15.5006 12.1571 16.7967C13.2771 17.9205 13.42 18.0797 13.42 18.1969C13.4212 18.2399 13.4115 18.2825 13.3919 18.3208C13.3724 18.3591 13.3435 18.3919 13.308 18.4161C13.1076 18.5753 13.0296 18.5388 12.5241 18.0487C12.2661 17.8009 12.0007 17.5611 11.9302 17.5166C11.8027 17.4385 11.4797 17.4044 11.4197 17.467C11.3987 17.485 11.8752 17.9886 12.4771 18.5854C13.4795 19.5786 13.594 19.6807 13.8885 19.8214C14.1598 19.9566 14.4585 20.0274 14.7616 20.0283C15.0646 20.0292 15.3638 19.9601 15.6359 19.8264C16.4768 19.4249 16.9432 18.4497 16.7138 17.5656C16.5993 17.1251 16.4558 16.9138 15.8778 16.3166C15.2114 15.6333 15.0574 15.4455 14.8934 15.1171C14.7109 14.7497 14.6329 14.3923 14.6329 13.9462C14.6329 13.4636 14.6824 13.2449 14.8959 12.7938C15.0989 12.3638 15.5234 11.9128 15.9428 11.6805C16.7658 11.2214 17.8492 11.2605 18.6351 11.7746C18.7916 11.8762 19.3566 12.4084 20.0595 13.1147C21.1039 14.163 21.2234 14.2986 21.2234 14.4183C21.2234 14.7026 20.9914 15.018 20.7339 15.0831C20.6374 15.1091 20.6559 15.1352 21.0934 15.5812C21.3484 15.8395 21.5854 16.1184 21.6219 16.2045C21.7444 16.4993 21.6894 16.7857 21.4654 17.0205C21.3509 17.1406 21.3354 17.1822 21.3324 17.4219C21.3299 17.6332 21.3064 17.7218 21.2229 17.842C21.157 17.9397 21.0687 18.0203 20.9653 18.0769C20.862 18.1336 20.7467 18.1648 20.6289 18.1678C20.4675 18.1678 20.4365 18.1834 20.3555 18.306C20.173 18.5879 19.699 18.6865 19.392 18.5043L19.2386 18.4131L19.1291 18.5203C18.8871 18.7526 18.4961 18.7836 18.1996 18.5934C17.9602 18.4422 17.7832 18.2309 17.7832 18.0978C17.7832 17.9806 17.9527 17.7874 18.0567 17.7874C18.1557 17.7874 18.2886 17.8655 18.4396 18.0067C18.5906 18.1498 18.7211 18.1498 18.7416 18.0041C18.7521 17.9261 18.6271 17.7774 18.1217 17.2688C17.5902 16.7316 17.4887 16.609 17.4887 16.5048C17.4875 16.4467 17.4982 16.3889 17.5202 16.3351C17.5777 16.249 17.7392 16.1889 17.8377 16.215C17.8897 16.228 18.3296 16.635 18.8116 17.1171C19.2961 17.6022 19.7205 17.9981 19.7595 17.9981C19.8665 17.9981 19.9365 17.891 19.887 17.7999C19.8635 17.7584 19.4545 17.3383 18.9806 16.8638C18.2386 16.1234 18.1187 15.9852 18.1187 15.8756C18.1162 15.8165 18.127 15.7577 18.1502 15.7034C18.1946 15.6383 18.3506 15.5602 18.4391 15.5602C18.4781 15.5602 18.9676 16.0162 19.5275 16.5744C20.5535 17.5967 20.6289 17.6537 20.7359 17.4845C20.7749 17.4219 20.6344 17.2627 19.7645 16.3892C18.8661 15.4871 18.7466 15.3514 18.7466 15.2343C18.7466 15.1537 18.7831 15.0701 18.8406 15.018C19.0306 14.8383 19.0881 14.8748 20.0125 15.795C20.8874 16.6685 20.9654 16.7256 21.0724 16.5589C21.1114 16.4963 20.9344 16.3036 19.8485 15.2133C18.6661 14.0243 18.5806 13.9277 18.5806 13.7895C18.5806 13.5808 18.7006 13.4817 18.9321 13.4977C18.9736 13.5002 19.2236 13.7114 19.4815 13.9642C19.742 14.2171 20.023 14.4543 20.1065 14.4909C20.2705 14.5585 20.4605 14.569 20.5415 14.5169C20.6194 14.4674 18.4581 12.3373 18.1771 12.1886C17.9362 12.0584 17.6713 11.9789 17.3985 11.9551C17.1258 11.9313 16.8511 11.9636 16.5913 12.0501C16.3315 12.1366 16.0921 12.2754 15.8879 12.4579C15.6837 12.6405 15.519 12.863 15.4039 13.1117C15.2684 13.4011 15.2504 13.4872 15.2319 13.8601C15.2164 14.212 15.2294 14.3217 15.3049 14.5459C15.4404 14.9449 15.5574 15.1091 16.1643 15.7299C16.8208 16.4027 16.9458 16.5564 17.1122 16.9163C17.5812 17.9175 17.3832 19.0754 16.6098 19.8469C16.0213 20.4386 15.2194 20.7154 14.425 20.6063Z" fill="#00D1FF"/>
</svg>
